<?xml version="1.0" encoding="utf-8" standalone="yes"?>
<!DOCTYPE svg PUBLIC "-//W3C//DTD SVG 1.1//EN" "http://www.w3.org/Graphics/SVG/1.1/DTD/svg11.dtd">
<svg style="fill:none;stroke:none;fill-rule:evenodd;clip-rule:evenodd;stroke-linecap:round;stroke-linejoin:round;stroke-miterlimit:1.5;" version="1.1" xmlns="http://www.w3.org/2000/svg" xmlns:xlink="http://www.w3.org/1999/xlink" width="839" height="927" viewBox="0 0 839 927"><style class="text-font-style fontImports" data-font-family="Roboto">@import url(https://fonts.googleapis.com/css2?family=Roboto:wght@400;700&amp;amp;display=block);</style><rect id="" x="0" y="0" width="839" height="927" style="fill: #ffffff;"></rect><g id="items" style="isolation: isolate"><g id="blend" style="mix-blend-mode: normal"><g id="g-root-tf_1q88kud18gozd4-fill" data-item-order="-1166630"><g id="tf_1q88kud18gozd4-fill-merged" stroke="none" fill="#ffffff" fill-opacity="1"><g><path d="M0 0 H839 V927 H0 V0"></path></g></g></g><g id="g-root-tf_1q88kud18gozd4-stroke" data-item-order="-1166630"></g><g id="g-root-cp_7_g-7_ddlked18grr4d-fill" data-item-order="-657311" transform="translate(590, 140)"><g id="cp_7_g-7_ddlked18grr4d-fill-merged" stroke="none" fill="#e55753" fill-opacity="1"><g><path d="M118 152C118 155.86 116.43 159.36 113.9 161.9C111.36 164.43 107.86 166 104 166C98.48 166 94 161.52 94 156 V116C94 110.48 89.52 106 84 106 H10 V24C10 16.27 16.27 10 24 10 H132C124.27 10 118 16.27 118 24C118 16.27 124.27 10 132 10C137.52 10 142 14.48 142 20 V70 H118 V152"></path></g></g></g><g id="g-root-cp_7_g-7_ddlked18grr4d-stroke" data-item-order="-657311" transform="translate(590, 140)"><g id="cp_7_g-7_ddlked18grr4d-stroke" fill="none" stroke-linecap="round" stroke-linejoin="round" stroke-miterlimit="4" stroke="#ffffff" stroke-width="2" stroke-opacity="1"><g><path d="M 118 70L 118 24C 118 16.27 124.27 10 132 10C 137.52 10 142 14.48 142 20L 142 70L 118 70ZM 118 24L 118 76M 132 10L 24 10C 16.27 10 10 16.27 10 24L 10 76M 10 76L 10 94M 118 76L 118 94M 118 94L 118 152C 118 155.86 116.43 159.36 113.9 161.9C 111.36 164.43 107.86 166 104 166C 98.48 166 94 161.52 94 156L 94 116C 94 110.48 89.52 106 84 106L 10 106L 10 94"></path></g></g></g><g id="g-root-cp_6_g-6_1unflvp18grtae-fill" data-item-order="-657281" transform="translate(542, 236)"><g id="cp_6_g-6_1unflvp18grtae-fill-merged" stroke="none" fill="#de8431" fill-opacity="1"><g><path d="M118 152C118 155.86 116.43 159.36 113.9 161.9C111.36 164.43 107.86 166 104 166C98.48 166 94 161.52 94 156 V116C94 110.48 89.52 106 84 106 H10 V24C10 16.27 16.27 10 24 10 H132C124.27 10 118 16.27 118 24C118 16.27 124.27 10 132 10C137.52 10 142 14.48 142 20 V60C142 65.52 146.48 70 152 70 H118 V152"></path></g></g></g><g id="g-root-cp_6_g-6_1unflvp18grtae-stroke" data-item-order="-657281" transform="translate(542, 236)"><g id="cp_6_g-6_1unflvp18grtae-stroke" fill="none" stroke-linecap="round" stroke-linejoin="round" stroke-miterlimit="4" stroke="#ffffff" stroke-width="2" stroke-opacity="1"><g><path d="M 152 70L 118 70L 118 24C 118 16.27 124.27 10 132 10C 137.52 10 142 14.48 142 20L 142 60C 142 65.52 146.48 70 152 70ZM 118 24L 118 76M 132 10L 24 10C 16.27 10 10 16.27 10 24L 10 76M 10 76L 10 94M 118 76L 118 94M 118 94L 118 152C 118 155.86 116.43 159.36 113.9 161.9C 111.36 164.43 107.86 166 104 166C 98.48 166 94 161.52 94 156L 94 116C 94 110.48 89.52 106 84 106L 10 106L 10 94"></path></g></g></g><g id="g-root-cp_5_g-5_141528518grtaf-fill" data-item-order="-657251" transform="translate(494, 332)"><g id="cp_5_g-5_141528518grtaf-fill-merged" stroke="none" fill="#e0cb15" fill-opacity="1"><g><path d="M118 152C118 155.86 116.43 159.36 113.9 161.9C111.36 164.43 107.86 166 104 166C98.48 166 94 161.52 94 156 V116C94 110.48 89.52 106 84 106 H10 V24C10 16.27 16.27 10 24 10 H132C124.27 10 118 16.27 118 24C118 16.27 124.27 10 132 10C137.52 10 142 14.48 142 20 V60C142 65.52 146.48 70 152 70 H118 V152"></path></g></g></g><g id="g-root-cp_5_g-5_141528518grtaf-stroke" data-item-order="-657251" transform="translate(494, 332)"><g id="cp_5_g-5_141528518grtaf-stroke" fill="none" stroke-linecap="round" stroke-linejoin="round" stroke-miterlimit="4" stroke="#ffffff" stroke-width="2" stroke-opacity="1"><g><path d="M 152 70L 118 70L 118 24C 118 16.27 124.27 10 132 10C 137.52 10 142 14.48 142 20L 142 60C 142 65.52 146.48 70 152 70ZM 118 24L 118 76M 132 10L 24 10C 16.27 10 10 16.27 10 24L 10 76M 10 76L 10 94M 118 76L 118 94M 118 94L 118 152C 118 155.86 116.43 159.36 113.9 161.9C 111.36 164.43 107.86 166 104 166C 98.48 166 94 161.52 94 156L 94 116C 94 110.48 89.52 106 84 106L 10 106L 10 94"></path></g></g></g><g id="g-root-cp_4_g-4_qqb0xx18grrpk-fill" data-item-order="-657221" transform="translate(446, 428)"><g id="cp_4_g-4_qqb0xx18grrpk-fill-merged" stroke="none" fill="#92bd39" fill-opacity="1"><g><path d="M118 152C118 155.86 116.43 159.36 113.9 161.9C111.36 164.43 107.86 166 104 166C98.48 166 94 161.52 94 156 V116C94 110.48 89.52 106 84 106 H10 V24C10 16.27 16.27 10 24 10 H132C124.27 10 118 16.27 118 24C118 16.27 124.27 10 132 10C137.52 10 142 14.48 142 20 V60C142 65.52 146.48 70 152 70 H118 V152"></path></g></g></g><g id="g-root-cp_4_g-4_qqb0xx18grrpk-stroke" data-item-order="-657221" transform="translate(446, 428)"><g id="cp_4_g-4_qqb0xx18grrpk-stroke" fill="none" stroke-linecap="round" stroke-linejoin="round" stroke-miterlimit="4" stroke="#ffffff" stroke-width="2" stroke-opacity="1"><g><path d="M 152 70L 118 70L 118 24C 118 16.27 124.27 10 132 10C 137.52 10 142 14.48 142 20L 142 60C 142 65.52 146.48 70 152 70ZM 118 24L 118 76M 132 10L 24 10C 16.27 10 10 16.27 10 24L 10 76M 10 76L 10 94M 118 76L 118 94M 118 94L 118 152C 118 155.86 116.43 159.36 113.9 161.9C 111.36 164.43 107.86 166 104 166C 98.48 166 94 161.52 94 156L 94 116C 94 110.48 89.52 106 84 106L 10 106L 10 94"></path></g></g></g><g id="g-root-cp_3_g-3_deuikl18grtah-fill" data-item-order="-657191" transform="translate(398, 524)"><g id="cp_3_g-3_deuikl18grtah-fill-merged" stroke="none" fill="#3cc583" fill-opacity="1"><g><path d="M118 170C118 173.86 116.43 177.36 113.9 179.9C111.36 182.43 107.86 184 104 184C98.48 184 94 179.52 94 174 V134C94 128.48 89.52 124 84 124 H10 V24C10 16.27 16.27 10 24 10 H132C124.27 10 118 16.27 118 24C118 16.27 124.27 10 132 10C137.52 10 142 14.48 142 20 V60C142 65.52 146.48 70 152 70 H118 V170"></path></g></g></g><g id="g-root-cp_3_g-3_deuikl18grtah-stroke" data-item-order="-657191" transform="translate(398, 524)"><g id="cp_3_g-3_deuikl18grtah-stroke" fill="none" stroke-linecap="round" stroke-linejoin="round" stroke-miterlimit="4" stroke="#ffffff" stroke-width="2" stroke-opacity="1"><g><path d="M 152 70L 118 70L 118 24C 118 16.27 124.27 10 132 10C 137.52 10 142 14.48 142 20L 142 60C 142 65.52 146.48 70 152 70ZM 118 24L 118 76M 132 10L 24 10C 16.27 10 10 16.27 10 24L 10 76M 10 76L 10 112M 118 76L 118 112M 118 112L 118 170C 118 173.86 116.43 177.36 113.9 179.9C 111.36 182.43 107.86 184 104 184C 98.48 184 94 179.52 94 174L 94 134C 94 128.48 89.52 124 84 124L 10 124L 10 112"></path></g></g></g><g id="g-root-cp_2_g-2_1upb15118grsaq-fill" data-item-order="-657161" transform="translate(350, 638)"><g id="cp_2_g-2_1upb15118grsaq-fill-merged" stroke="none" fill="#1eabda" fill-opacity="1"><g><path d="M118 152C118 155.86 116.43 159.36 113.9 161.9C111.36 164.43 107.86 166 104 166C98.48 166 94 161.52 94 156 V116C94 110.48 89.52 106 84 106 H10 V24C10 16.27 16.27 10 24 10 H132C124.27 10 118 16.27 118 24C118 16.27 124.27 10 132 10C137.52 10 142 14.48 142 20 V60C142 65.52 146.48 70 152 70 H118 V152"></path></g></g></g><g id="g-root-cp_2_g-2_1upb15118grsaq-stroke" data-item-order="-657161" transform="translate(350, 638)"><g id="cp_2_g-2_1upb15118grsaq-stroke" fill="none" stroke-linecap="round" stroke-linejoin="round" stroke-miterlimit="4" stroke="#ffffff" stroke-width="2" stroke-opacity="1"><g><path d="M 152 70L 118 70L 118 24C 118 16.27 124.27 10 132 10C 137.52 10 142 14.48 142 20L 142 60C 142 65.52 146.48 70 152 70ZM 118 24L 118 76M 132 10L 24 10C 16.27 10 10 16.27 10 24L 10 76M 10 76L 10 94M 118 76L 118 94M 118 94L 118 152C 118 155.86 116.43 159.36 113.9 161.9C 111.36 164.43 107.86 166 104 166C 98.48 166 94 161.52 94 156L 94 116C 94 110.48 89.52 106 84 106L 10 106L 10 94"></path></g></g></g><g id="g-root-cp_1_g-1_1hegzut18grqpv-fill" data-item-order="-657131" transform="translate(302, 734)"><g id="cp_1_g-1_1hegzut18grqpv-fill-merged" stroke="none" fill="#4e88e7" fill-opacity="1"><g><path d="M118 160 H10 V24C10 16.27 16.27 10 24 10 H132C124.27 10 118 16.27 118 24C118 16.27 124.27 10 132 10C137.52 10 142 14.48 142 20 V60C142 65.52 146.48 70 152 70 H118 V160"></path></g></g></g><g id="g-root-cp_1_g-1_1hegzut18grqpv-stroke" data-item-order="-657131" transform="translate(302, 734)"><g id="cp_1_g-1_1hegzut18grqpv-stroke" fill="none" stroke-linecap="round" stroke-linejoin="round" stroke-miterlimit="4" stroke="#ffffff" stroke-width="2" stroke-opacity="1"><g><path d="M 152 70L 118 70L 118 24C 118 16.27 124.27 10 132 10C 137.52 10 142 14.48 142 20L 142 60C 142 65.52 146.48 70 152 70ZM 118 24L 118 82M 132 10L 24 10C 16.27 10 10 16.27 10 24L 10 82M 10 82.000004L 10 148M 118 82.000004L 118 148M 10 148L 10 160L 118 160L 118 148"></path></g></g></g><g id="g-root-tx_tsguimod_1hegzut18h08ap-fill" data-item-order="0" transform="translate(314.578125, 248)"><g id="tx_tsguimod_1hegzut18h08ap-fill-merged" stroke="none" fill="#de8431" fill-opacity="1"><g><text style="font: bold 20px Roboto, sans-serif; white-space: pre;" transform="translate(189.421875, 22)" font-weight="bold" font-size="20px" font-family="Roboto, sans-serif"><tspan x="-177.42" y="12" dominant-baseline="ideographic">TSGUI Modification</tspan></text></g></g></g><g id="g-root-tx_tsguimod_1hegzut18h08ap-stroke" data-item-order="0" transform="translate(314.578125, 248)"></g><g id="g-root-tx_6_dild3918h2znv-fill" data-item-order="0" transform="translate(585.390625, 266)"><g id="tx_6_dild3918h2znv-fill-merged" stroke="none" fill="#ffffff" fill-opacity="1"><g><text style="font: bold 30px Roboto, sans-serif; white-space: pre;" transform="translate(20.609375, 28)" font-weight="bold" font-size="30px" font-family="Roboto, sans-serif"><tspan x="-8.61" y="18" dominant-baseline="ideographic">6</tspan></text></g></g></g><g id="g-root-tx_6_dild3918h2znv-stroke" data-item-order="0" transform="translate(585.390625, 266)"></g><g id="g-root-tx_edmimagi_143mykl18h06pu-fill" data-item-order="0" transform="translate(359.71875, 284)"><g id="tx_edmimagi_143mykl18h06pu-fill-merged" stroke="none" fill="#484848" fill-opacity="1"><g><text style="font: 15px Roboto, sans-serif; white-space: pre;" transform="translate(144.28125, 28)" font-size="15px" font-family="Roboto, sans-serif"><tspan x="-132.28" y="0" dominant-baseline="ideographic">EDM Imaging Team </tspan><tspan x="-108.98" y="18" dominant-baseline="ideographic">modifies TSGUI.</tspan></text></g></g></g><g id="g-root-tx_edmimagi_143mykl18h06pu-stroke" data-item-order="0" transform="translate(359.71875, 284)"></g><g id="g-root-ic_sett_hwjfyd18h093f-fill" data-item-order="0" transform="translate(662, 314)"></g><g id="g-root-ic_sett_hwjfyd18h093f-stroke" data-item-order="0" transform="translate(662, 314)"><g id="ic_sett_hwjfyd18h093f-stroke" fill="none" stroke-linecap="round" stroke-linejoin="round" stroke-miterlimit="4" stroke="#484848" stroke-width="2" stroke-opacity="1"><g><path d="M 44.5 45.75C 44.5 47.130711 45.619289 48.25 47 48.25C 48.380711 48.25 49.5 47.130711 49.5 45.75C 49.5 44.369289 48.380711 43.25 47 43.25C 45.619289 43.25 44.5 44.369289 44.5 45.75ZM 10 10M 49.124001 36.077999L 49.860001 38.5C 50.111549 39.334187 50.967091 39.830193 51.816002 39.634003L 54.27 39.066002C 55.225796 38.847431 56.212318 39.278202 56.701683 40.127815C 57.191048 40.977425 57.068657 42.046913 56.400002 42.764004L 54.683998 44.613998C 54.090427 45.255028 54.090427 46.244972 54.684002 46.886002L 56.400002 48.736C 57.06662 49.452423 57.188824 50.519527 56.701431 51.368107C 56.214039 52.216686 55.230724 52.648819 54.276005 52.434002L 51.821999 51.866001C 50.973091 51.669815 50.11755 52.165817 49.866001 53.000004L 49.130001 55.422001C 48.848042 56.359409 47.984898 57.001133 47.006001 57.001133C 46.027103 57.001133 45.163956 56.359409 44.882 55.421997L 44.139999 53C 43.888454 52.165817 43.032913 51.669815 42.184002 51.866001L 39.73 52.433998C 38.774208 52.652573 37.787689 52.221802 37.298325 51.372192C 36.80896 50.522583 36.931351 49.453094 37.600002 48.736004L 39.316002 46.886002C 39.909576 46.244972 39.909576 45.255028 39.316002 44.614002L 37.599998 42.764C 36.933388 42.047581 36.81118 40.980476 37.298576 40.131897C 37.785969 39.283318 38.769279 38.851185 39.724003 39.066002L 42.178001 39.634003C 43.026913 39.830193 43.882454 39.334187 44.134003 38.5L 44.869999 36.077999C 45.148617 35.13554 46.014217 34.488804 46.996998 34.488804C 47.979782 34.488804 48.845379 35.13554 49.124001 36.077999ZM 31 41L 11 41C 11.000126 36.024738 14.070341 31.565557 18.718086 29.790255C 23.365831 28.01495 28.627033 29.291771 31.944 33M 15.5 18.5C 15.5 22.642136 18.857864 26 23 26C 27.142136 26 30.5 22.642136 30.5 18.5C 30.5 14.357864 27.142136 11 23 11C 18.857864 11 15.5 14.357864 15.5 18.5ZM 34.5 18.5C 34.5 22.642136 37.857864 26 42 26C 46.142136 26 49.5 22.642136 49.5 18.5C 49.5 14.357864 46.142136 11 42 11C 37.857864 11 34.5 14.357864 34.5 18.5ZM 48.939999 31.209999C 45.12677 28.505945 40.090317 28.262436 36.034 30.586"></path></g></g></g><g id="g-root-ic_moni_18k2xs518grton-fill" data-item-order="0" transform="translate(710, 218)"></g><g id="g-root-ic_moni_18k2xs518grton-stroke" data-item-order="0" transform="translate(710, 218)"><g id="ic_moni_18k2xs518grton-stroke" fill="none" stroke-linecap="round" stroke-linejoin="round" stroke-miterlimit="4" stroke="#484848" stroke-width="2" stroke-opacity="1"><g><path d="M 33.5 31.959999L 42.5 22.959999M 43.68 15.780001C 42.92392 16.531593 42.499157 17.553911 42.5 18.619999L 42.5 22.959999L 47.84 22.959999C 48.90609 22.960846 49.928406 22.536079 50.68 21.779999L 55.5 16.959999L 48.5 16.959999L 48.5 10.96ZM 39.5 56.959999L 27.5 56.959999C 29.217556 54.620441 30.255709 51.852032 30.5 48.959999L 36.5 48.959999C 36.756348 51.849304 37.793324 54.614571 39.5 56.959999ZM 24.540001 57.040001L 43.5 56.959999M 12.5 42.959999L 54.5 42.959999M 54.5 26.959999L 54.5 46C 54.5 47.656857 53.156857 49 51.5 49L 15.5 49C 13.843145 49 12.5 47.656857 12.5 46L 12.5 20C 12.5 18.343147 13.843145 17 15.5 17L 34.34 17M 26.5 31.959999C 26.500002 35.825996 29.634008 38.959999 33.5 38.959999C 37.365993 38.959999 40.5 35.825996 40.5 31.960001C 40.5 28.094007 37.365993 24.960001 33.5 24.960001C 29.634008 24.960001 26.500002 28.094007 26.500002 31.960001"></path></g></g></g><g id="g-root-tx_adattrib_1lxevet18h2zgs-fill" data-item-order="0" transform="translate(262.203125, 344)"><g id="tx_adattrib_1lxevet18h2zgs-fill-merged" stroke="none" fill="#e0cb15" fill-opacity="1"><g><text style="font: bold 20px Roboto, sans-serif; white-space: pre;" transform="translate(193.796875, 22)" font-weight="bold" font-size="20px" font-family="Roboto, sans-serif"><tspan x="-181.8" y="12" dominant-baseline="ideographic">AD Attribute Update</tspan></text></g></g></g><g id="g-root-tx_adattrib_1lxevet18h2zgs-stroke" data-item-order="0" transform="translate(262.203125, 344)"></g><g id="g-root-tx_5_mg3vr918gqe4u-fill" data-item-order="0" transform="translate(537.390625, 362)"><g id="tx_5_mg3vr918gqe4u-fill-merged" stroke="none" fill="#ffffff" fill-opacity="1"><g><text style="font: bold 30px Roboto, sans-serif; white-space: pre;" transform="translate(20.609375, 28)" font-weight="bold" font-size="30px" font-family="Roboto, sans-serif"><tspan x="-8.61" y="18" dominant-baseline="ideographic">5</tspan></text></g></g></g><g id="g-root-tx_5_mg3vr918gqe4u-stroke" data-item-order="0" transform="translate(537.390625, 362)"></g><g id="g-root-tx_newhires_1464ux118h31tx-fill" data-item-order="0" transform="translate(258.015625, 380)"><g id="tx_newhires_1464ux118h31tx-fill-merged" stroke="none" fill="#484848" fill-opacity="1"><g><text style="font: 15px Roboto, sans-serif; white-space: pre;" transform="translate(197.984375, 28)" font-size="15px" font-family="Roboto, sans-serif"><tspan x="-185.98" y="0" dominant-baseline="ideographic">New hire's AD attributes are </tspan><tspan x="-60.59" y="18" dominant-baseline="ideographic">updated.</tspan></text></g></g></g><g id="g-root-tx_newhires_1464ux118h31tx-stroke" data-item-order="0" transform="translate(258.015625, 380)"></g><g id="g-root-ic_sett_hzntdx18h311q-fill" data-item-order="0" transform="translate(614, 410)"></g><g id="g-root-ic_sett_hzntdx18h311q-stroke" data-item-order="0" transform="translate(614, 410)"><g id="ic_sett_hzntdx18h311q-stroke" fill="none" stroke-linecap="round" stroke-linejoin="round" stroke-miterlimit="4" stroke="#484848" stroke-width="2" stroke-opacity="1"><g><path d="M 42.625999 44.063999C 42.626003 45.651268 43.912735 46.938004 45.5 46.938004C 47.087269 46.938004 48.374001 45.651268 48.374001 44.064003C 48.374001 42.476734 47.087269 41.190002 45.5 41.190002C 43.912735 41.190002 42.626003 42.476734 42.626003 44.064003ZM 10 10M 47.942001 32.942001L 48.790001 35.725998C 49.079254 36.684647 50.062237 37.254845 51.038002 37.029999L 53.862 36.375999C 54.959873 36.12854 56.09087 36.625343 56.65136 37.601265C 57.211845 38.577183 57.071003 39.804428 56.304001 40.627998L 54.327999 42.757999C 53.651917 43.492813 53.651917 44.623184 54.327999 45.357998L 56.304001 47.487999C 57.071003 48.311573 57.211845 49.538818 56.65136 50.514736C 56.09087 51.490654 54.959873 51.987461 53.862 51.740002L 51.037998 51.085999C 50.062634 50.867977 49.084904 51.442032 48.799999 52.400002L 47.952 55.183998C 47.627914 56.261845 46.635513 56.999741 45.509998 56.999741C 44.384487 56.999741 43.392086 56.261845 43.068001 55.183998L 42.209999 52.400002C 41.920746 51.441357 40.937763 50.871155 39.961998 51.096001L 37.138 51.75C 36.040127 51.997459 34.90913 51.500656 34.34864 50.524734C 33.788155 49.548817 33.928997 48.321571 34.695999 47.498001L 36.672001 45.368C 37.348076 44.633183 37.348076 43.502815 36.671997 42.767998L 34.695999 40.638C 33.928997 39.81443 33.788155 38.587181 34.34864 37.611263C 34.90913 36.635345 36.040127 36.138542 37.138 36.386002L 39.961998 37.040001C 40.937763 37.264847 41.920746 36.694645 42.209999 35.736L 43.057999 32.952C 43.379871 31.873486 44.370766 31.133551 45.496281 31.131245C 46.621799 31.128941 47.615715 31.864813 47.942001 32.942001ZM 31 43L 11 43C 11.026983 40.715012 11.502659 38.457588 12.4 36.356003C 13.38 34.393997 17.478001 33.034 22.622 31.129999C 24.012001 30.614 23.784 26.983999 23.167999 26.306C 21.180573 24.156961 20.205471 21.261486 20.487999 18.348C 20.309784 16.494543 20.909979 14.650401 22.144955 13.256882C 23.379929 11.863361 25.138561 11.045857 27 11C 28.861441 11.045857 30.620071 11.863361 31.855047 13.256882C 33.090023 14.650401 33.690216 16.494543 33.512001 18.348C 33.796669 21.2603 32.824532 24.155613 30.84 26.306C 30.224001 26.983999 29.996 30.614 31.386 31.129999C 32.293999 31.466 33.167999 31.784 34 32.094002"></path></g></g></g><g id="g-root-tx_deployme_1qbcy9x18grrbi-fill" data-item-order="0" transform="translate(364.265625, 188)"><g id="tx_deployme_1qbcy9x18grrbi-fill-merged" stroke="none" fill="#484848" fill-opacity="1"><g><text style="font: 15px Roboto, sans-serif; white-space: pre;" transform="translate(187.734375, 28)" font-size="15px" font-family="Roboto, sans-serif"><tspan x="-171.11" y="0" dominant-baseline="ideographic">Deployment team installs </tspan><tspan x="-175.73" y="18" dominant-baseline="ideographic">apps based on selections.</tspan></text></g></g></g><g id="g-root-tx_deployme_1qbcy9x18grrbi-stroke" data-item-order="0" transform="translate(364.265625, 188)"></g><g id="g-root-tx_formcons_zitqx118grtag-fill" data-item-order="0" transform="translate(218.0625, 440)"><g id="tx_formcons_zitqx118grtag-fill-merged" stroke="none" fill="#92bd39" fill-opacity="1"><g><text style="font: bold 20px Roboto, sans-serif; white-space: pre;" transform="translate(189.9375, 22)" font-weight="bold" font-size="20px" font-family="Roboto, sans-serif"><tspan x="-177.94" y="12" dominant-baseline="ideographic">Form Consolidation</tspan></text></g></g></g><g id="g-root-tx_formcons_zitqx118grtag-stroke" data-item-order="0" transform="translate(218.0625, 440)"></g><g id="g-root-tx_4_4j7lhh18gxfyh-fill" data-item-order="0" transform="translate(489.390625, 458)"><g id="tx_4_4j7lhh18gxfyh-fill-merged" stroke="none" fill="#ffffff" fill-opacity="1"><g><text style="font: bold 30px Roboto, sans-serif; white-space: pre;" transform="translate(20.609375, 28)" font-weight="bold" font-size="30px" font-family="Roboto, sans-serif"><tspan x="-8.61" y="18" dominant-baseline="ideographic">4</tspan></text></g></g></g><g id="g-root-tx_4_4j7lhh18gxfyh-stroke" data-item-order="0" transform="translate(489.390625, 458)"></g><g id="g-root-tx_tcstrans_8wj79h18grtah-fill" data-item-order="0" transform="translate(222.3125, 476)"><g id="tx_tcstrans_8wj79h18grtah-fill-merged" stroke="none" fill="#484848" fill-opacity="1"><g><text style="font: 15px Roboto, sans-serif; white-space: pre;" transform="translate(185.6875, 28)" font-size="15px" font-family="Roboto, sans-serif"><tspan x="-173.69" y="0" dominant-baseline="ideographic">TCS Transformation team </tspan><tspan x="-134.94" y="18" dominant-baseline="ideographic">consolidates forms.</tspan></text></g></g></g><g id="g-root-tx_tcstrans_8wj79h18grtah-stroke" data-item-order="0" transform="translate(222.3125, 476)"></g><g id="g-root-ic_text_1hbcpl118grt3e-fill" data-item-order="0" transform="translate(566, 506)"></g><g id="g-root-ic_text_1hbcpl118grt3e-stroke" data-item-order="0" transform="translate(566, 506)"><g id="ic_text_1hbcpl118grt3e-stroke" fill="none" stroke-linecap="round" stroke-linejoin="round" stroke-miterlimit="4" stroke="#484848" stroke-width="2" stroke-opacity="1"><g><path d="M 39 37L 55 37C 55 37 57 37 57 39L 57 55C 57 55 57 57 55 57L 39 57C 39 57 37 57 37 55L 37 39C 37 39 37 37 39 37M 10 10M 43 43L 51 43M 10 10M 43 47L 51 47M 10 10M 43 51L 47 51M 31 41L 11 41C 11.000126 36.024738 14.070341 31.565557 18.718086 29.790255C 23.365831 28.01495 28.627033 29.291771 31.944 33M 15.5 18.5C 15.5 22.642136 18.857864 26 23 26C 27.142136 26 30.5 22.642136 30.5 18.5C 30.5 14.357864 27.142136 11 23 11C 18.857864 11 15.5 14.357864 15.5 18.5M 34.5 18.5C 34.5 22.642136 37.857864 26 42 26C 46.142136 26 49.5 22.642136 49.5 18.5C 49.5 14.357864 46.142136 11 42 11C 37.857864 11 34.5 14.357864 34.5 18.5M 50.933998 32.987999C 47.142303 28.758364 40.904419 27.766714 35.987999 30.612001"></path></g></g></g><g id="g-root-tx_7_4mydh18h064o-fill" data-item-order="0" transform="translate(633.390625, 170)"><g id="tx_7_4mydh18h064o-fill-merged" stroke="none" fill="#ffffff" fill-opacity="1"><g><text style="font: bold 30px Roboto, sans-serif; white-space: pre;" transform="translate(20.609375, 28)" font-weight="bold" font-size="30px" font-family="Roboto, sans-serif"><tspan x="-8.61" y="18" dominant-baseline="ideographic">7</tspan></text></g></g></g><g id="g-root-tx_7_4mydh18h064o-stroke" data-item-order="0" transform="translate(633.390625, 170)"></g><g id="g-root-tx_snowrequ_zn72it18gxe6i-fill" data-item-order="0" transform="translate(209.375, 536)"><g id="tx_snowrequ_zn72it18gxe6i-fill-merged" stroke="none" fill="#3cc583" fill-opacity="1"><g><text style="font: bold 20px Roboto, sans-serif; white-space: pre;" transform="translate(150.625, 22)" font-weight="bold" font-size="20px" font-family="Roboto, sans-serif"><tspan x="-138.63" y="12" dominant-baseline="ideographic">SNOW Request</tspan></text></g></g></g><g id="g-root-tx_snowrequ_zn72it18gxe6i-stroke" data-item-order="0" transform="translate(209.375, 536)"></g><g id="g-root-tx_3_1haq8hx18h79jh-fill" data-item-order="0" transform="translate(441.390625, 563)"><g id="tx_3_1haq8hx18h79jh-fill-merged" stroke="none" fill="#ffffff" fill-opacity="1"><g><text style="font: bold 30px Roboto, sans-serif; white-space: pre;" transform="translate(20.609375, 28)" font-weight="bold" font-size="30px" font-family="Roboto, sans-serif"><tspan x="-8.61" y="18" dominant-baseline="ideographic">3</tspan></text></g></g></g><g id="g-root-tx_3_1haq8hx18h79jh-stroke" data-item-order="0" transform="translate(441.390625, 563)"></g><g id="g-root-tx_managers_90wiv918gxe6j-fill" data-item-order="0" transform="translate(206.28125, 572)"><g id="tx_managers_90wiv918gxe6j-fill-merged" stroke="none" fill="#484848" fill-opacity="1"><g><text style="font: 15px Roboto, sans-serif; white-space: pre;" transform="translate(153.71875, 37)" font-size="15px" font-family="Roboto, sans-serif"><tspan x="-141.72" y="-9" dominant-baseline="ideographic">Manager submits PC </tspan><tspan x="-107.64" y="9" dominant-baseline="ideographic">request through </tspan><tspan x="-84.38" y="27" dominant-baseline="ideographic">ServiceNow.</tspan></text></g></g></g><g id="g-root-tx_managers_90wiv918gxe6j-stroke" data-item-order="0" transform="translate(206.28125, 572)"></g><g id="g-root-ic_writ_1hfq16t18gxdzg-fill" data-item-order="0" transform="translate(518, 611)"></g><g id="g-root-ic_writ_1hfq16t18gxdzg-stroke" data-item-order="0" transform="translate(518, 611)"><g id="ic_writ_1hfq16t18gxdzg-stroke" fill="none" stroke-linecap="round" stroke-linejoin="round" stroke-miterlimit="4" stroke="#484848" stroke-width="2" stroke-opacity="1"><g><path d="M 38 51L 13 51C 11.895431 51 11 50.104568 11 49L 11 13C 11 11.895431 11.895431 11 13 11L 41 11C 42.104568 11 43 11.895431 43 13L 43 25M 23 17L 35 17M 23 23L 35 23M 23 29L 28 29M 17 16.5C 17.276142 16.5 17.5 16.723858 17.5 17C 17.5 17.276142 17.276142 17.5 17 17.5C 16.723858 17.5 16.5 17.276142 16.5 17C 16.5 16.723858 16.723858 16.5 17 16.5M 17 22.5C 17.276142 22.5 17.5 22.723858 17.5 23C 17.5 23.276142 17.276142 23.5 17 23.5C 16.723858 23.5 16.5 23.276142 16.5 23C 16.5 22.723858 16.723858 22.5 17 22.5M 17 28.5C 17.276142 28.5 17.5 28.723858 17.5 29C 17.5 29.276142 17.276142 29.5 17 29.5C 16.723858 29.5 16.5 29.276142 16.5 29C 16.5 28.723858 16.723858 28.5 17 28.5M 44.84 30.34C 44.84 30.34 43.639999 28.34 39.620003 29.42C 33.84 30.860001 32.419998 37.279999 32.299999 38.02M 29.18 39.940002L 25.619999 45.639999L 32.299999 45.060001M 40.440002 40L 51.060001 33.5C 52.163898 32.543274 52.418209 30.930513 51.662285 29.680517C 50.906357 28.430521 49.359974 27.906717 48 28.440001L 29.18 40L 32.299999 45.119999L 36 42.82M 46.200001 41.779999L 38.580002 39.52C 37.782471 39.222481 36.88562 39.394005 36.254162 39.964817C 35.6227 40.535629 35.361794 41.410664 35.577545 42.234085C 35.793293 43.057507 36.449764 43.692173 37.279999 43.880001L 42.080002 45.459999C 42.528664 48.148449 44.574711 50.289661 47.240002 50.860001L 47.419998 50.860001L 48 57M 57 57C 57 57 54.740002 39.419998 49.119999 34.760002"></path></g></g></g><g id="g-root-tx_appinsta_dgpxtx18grsat-fill" data-item-order="0" transform="translate(396.75, 152)"><g id="tx_appinsta_dgpxtx18grsat-fill-merged" stroke="none" fill="#e55753" fill-opacity="1"><g><text style="font: bold 20px Roboto, sans-serif; white-space: pre;" transform="translate(155.25, 22)" font-weight="bold" font-size="20px" font-family="Roboto, sans-serif"><tspan x="-143.25" y="12" dominant-baseline="ideographic">App Installation</tspan></text></g></g></g><g id="g-root-tx_appinsta_dgpxtx18grsat-stroke" data-item-order="0" transform="translate(396.75, 152)"></g><g id="g-root-tx_accountc_ddlnk518h77ym-fill" data-item-order="0" transform="translate(141.984375, 650)"><g id="tx_accountc_ddlnk518h77ym-fill-merged" stroke="none" fill="#1eabda" fill-opacity="1"><g><text style="font: bold 20px Roboto, sans-serif; white-space: pre;" transform="translate(170.015625, 22)" font-weight="bold" font-size="20px" font-family="Roboto, sans-serif"><tspan x="-158.02" y="12" dominant-baseline="ideographic">Account Creation</tspan></text></g></g></g><g id="g-root-tx_accountc_ddlnk518h77ym-stroke" data-item-order="0" transform="translate(141.984375, 650)"></g><g id="g-root-tx_2_mczlhh18gqe4p-fill" data-item-order="0" transform="translate(393.390625, 668)"><g id="tx_2_mczlhh18gqe4p-fill-merged" stroke="none" fill="#ffffff" fill-opacity="1"><g><text style="font: bold 30px Roboto, sans-serif; white-space: pre;" transform="translate(20.609375, 28)" font-weight="bold" font-size="30px" font-family="Roboto, sans-serif"><tspan x="-8.61" y="18" dominant-baseline="ideographic">2</tspan></text></g></g></g><g id="g-root-tx_2_mczlhh18gqe4p-stroke" data-item-order="0" transform="translate(393.390625, 668)"></g><g id="g-root-tx_adandsno_v64m8518h77rj-fill" data-item-order="0" transform="translate(112.671875, 686)"><g id="tx_adandsno_v64m8518h77rj-fill-merged" stroke="none" fill="#484848" fill-opacity="1"><g><text style="font: 15px Roboto, sans-serif; white-space: pre;" transform="translate(199.328125, 28)" font-size="15px" font-family="Roboto, sans-serif"><tspan x="-187.33" y="0" dominant-baseline="ideographic">AD and SNOW accounts are </tspan><tspan x="-56.19" y="18" dominant-baseline="ideographic">created.</tspan></text></g></g></g><g id="g-root-tx_adandsno_v64m8518h77rj-stroke" data-item-order="0" transform="translate(112.671875, 686)"></g><g id="g-root-ic_desk_8znkp118h77r4-fill" data-item-order="0" transform="translate(470, 716)"></g><g id="g-root-ic_desk_8znkp118h77r4-stroke" data-item-order="0" transform="translate(470, 716)"><g id="ic_desk_8znkp118h77r4-stroke" fill="none" stroke-linecap="round" stroke-linejoin="round" stroke-miterlimit="4" stroke="#484848" stroke-width="2" stroke-opacity="1"><g><path d="M 21 21L 47 21C 47 21 49 21 49 23L 49 31C 49 31 49 33 47 33L 21 33C 21 33 19 33 19 31L 19 23C 19 23 19 21 21 21M 28.275999 57C 29.933384 54.650242 30.879063 51.872917 31 49M 39.723999 57C 38.066612 54.650242 37.120934 51.872917 37 49M 25 57L 43 57M 11 43L 57 43M 13 11L 55 11C 55 11 57 11 57 13L 57 47C 57 47 57 49 55 49L 13 49C 13 49 11 49 11 47L 11 13C 11 13 11 11 13 11M 26 26.5C 26.276142 26.5 26.5 26.723858 26.5 27C 26.5 27.276142 26.276142 27.5 26 27.5C 25.723858 27.5 25.5 27.276142 25.5 27C 25.5 26.723858 25.723858 26.5 26 26.5M 34 26.5C 34.276142 26.5 34.5 26.723858 34.5 27C 34.5 27.276142 34.276142 27.5 34 27.5C 33.723858 27.5 33.5 27.276142 33.5 27C 33.5 26.723858 33.723858 26.5 34 26.5M 42 26.5C 42.276142 26.5 42.5 26.723858 42.5 27C 42.5 27.276142 42.276142 27.5 42 27.5C 41.723858 27.5 41.5 27.276142 41.5 27C 41.5 26.723858 41.723858 26.5 42 26.5"></path></g></g></g><g id="g-root-ic_logo_quoiv918gqccs-fill" data-item-order="0" transform="translate(422, 821)"></g><g id="g-root-ic_logo_quoiv918gqccs-stroke" data-item-order="0" transform="translate(422, 821)"><g id="ic_logo_quoiv918gqccs-stroke" fill="none" stroke-linecap="round" stroke-linejoin="round" stroke-miterlimit="4" stroke="#484848" stroke-width="2" stroke-opacity="1"><g><path d="M 25 57L 26 45L 31 45L 31 38C 31 32.477154 26.522848 28 21 28C 15.477153 28 11 32.477154 11 38L 11 45L 16 45L 17 57ZM 14 18C 14 21.865993 17.134007 25 21 25C 24.865993 25 28 21.865993 28 18C 28 14.134007 24.865993 11 21 11C 17.134007 11 14 14.134007 14 18ZM 51 33L 57 27L 51 21M 37 27L 57 27"></path></g></g></g><g id="g-root-tx_onboardi_1urt3t118gqdxm-fill" data-item-order="0" transform="translate(145.421875, 746)"><g id="tx_onboardi_1urt3t118gqdxm-fill-merged" stroke="none" fill="#4e88e7" fill-opacity="1"><g><text style="font: bold 20px Roboto, sans-serif; white-space: pre;" transform="translate(118.578125, 22)" font-weight="bold" font-size="20px" font-family="Roboto, sans-serif"><tspan x="-106.58" y="12" dominant-baseline="ideographic">Onboarding</tspan></text></g></g></g><g id="g-root-tx_onboardi_1urt3t118gqdxm-stroke" data-item-order="0" transform="translate(145.421875, 746)"></g><g id="g-root-tx_1_1cxepvp18gt6o3-fill" data-item-order="0" transform="translate(345.390625, 773)"><g id="tx_1_1cxepvp18gt6o3-fill-merged" stroke="none" fill="#ffffff" fill-opacity="1"><g><text style="font: bold 30px Roboto, sans-serif; white-space: pre;" transform="translate(20.609375, 28)" font-weight="bold" font-size="30px" font-family="Roboto, sans-serif"><tspan x="-8.61" y="18" dominant-baseline="ideographic">1</tspan></text></g></g></g><g id="g-root-tx_1_1cxepvp18gt6o3-stroke" data-item-order="0" transform="translate(345.390625, 773)"></g><g id="g-root-tx_streamli_1430hhh18grsas-fill" data-item-order="0" transform="translate(212.9921875, 38)"><g id="tx_streamli_1430hhh18grsas-fill-merged" stroke="none" fill="#484848" fill-opacity="1"><g><text style="font: bold 25px Roboto, sans-serif; white-space: pre;" transform="translate(206.5078125, 25)" font-weight="bold" font-size="25px" font-family="Roboto, sans-serif"><tspan x="-194.51" y="15" dominant-baseline="ideographic">Streamlining New Hire Onboarding</tspan></text></g></g></g><g id="g-root-tx_streamli_1430hhh18grsas-stroke" data-item-order="0" transform="translate(212.9921875, 38)"></g><g id="g-root-tx_newemplo_1d15ked18gqd4z-fill" data-item-order="0" transform="translate(122.859375, 782)"><g id="tx_newemplo_1d15ked18gqd4z-fill-merged" stroke="none" fill="#484848" fill-opacity="1"><g><text style="font: 15px Roboto, sans-serif; white-space: pre;" transform="translate(141.140625, 37)" font-size="15px" font-family="Roboto, sans-serif"><tspan x="-115.3" y="-9" dominant-baseline="ideographic">New employee is </tspan><tspan x="-129.14" y="9" dominant-baseline="ideographic">onboarded through </tspan><tspan x="-62.95" y="27" dominant-baseline="ideographic">Workday.</tspan></text></g></g></g><g id="g-root-tx_newemplo_1d15ked18gqd4z-stroke" data-item-order="0" transform="translate(122.859375, 782)"></g></g></g><path id="w5uuk61b94jyi" d="M65.283 12.757a.35.35 0 0 0 .584.157l5.203-5.141-6.183 3.523.396 1.461zm-2.216-11.7a.35.35 0 0 0-.522.305v3.111l3.276-1.868-2.754-1.548zm3.728 2.105l-4.25 2.421v2.445l6.391-3.644-2.141-1.222zm4.708 3.303a.35.35 0 0 0 0-.609l-1.592-.9-7.365 4.199v1.782a.35.35 0 0 0 .523.305l8.435-4.777z M44.542 2.513c0-.433.355-.783.792-.783s.792.35.792.783-.355.783-.792.783-.792-.35-.792-.783zm59.171 0c0-.433.355-.783.792-.783s.792.35.792.783-.355.783-.792.783-.792-.35-.792-.783zm-85.951 7.636h-1.27v-.487c-.276.201-.864.609-1.881.609-1.202 0-2.274-.794-2.137-2.078.118-1.106 1.153-1.584 1.848-1.727l2.17-.345c0-.539-.29-.956-1.064-1.006s-1.21.305-1.571 1.017l-1.124-.605c1.218-2.631 5.029-1.764 5.029.414v4.207zm-1.27-2.86c.006.396-.062 1.112-.819 1.59-.587.37-1.841.299-1.903-.395-.049-.555.461-.791.906-.898l1.816-.297zm72.662 2.86h-1.27v-.487c-.276.201-.864.609-1.881.609-1.202 0-2.274-.794-2.137-2.078.118-1.106 1.153-1.584 1.848-1.727l2.17-.345c0-.539-.29-.956-1.064-1.006s-1.21.305-1.571 1.017l-1.124-.605c1.218-2.631 5.029-1.764 5.029.414v4.207zm-1.27-2.86c.006.396-.062 1.112-.82 1.59-.587.37-1.841.299-1.903-.395-.049-.555.461-.791.906-.898l1.816-.297zM99.096 10.149H97.85v-8.45h1.246v4.895l2.68-2.559h1.738l-2.633 2.535 2.715 3.578h-1.556l-2.077-2.707-.867.844v1.863zm6.053-6.114h-1.255v6.113h1.255V4.035zm-59.2 0h-1.255v6.113h1.255V4.035zm5.584 6.113V1.697h1.255v2.695c.361-.346 1-.485 1.47-.485 1.452 0 2.477 1.082 2.457 2.448v3.792h-1.27v-3.68c0-.408-.214-1.339-1.315-1.339-.968 0-1.342.756-1.342 1.339v3.681h-1.255zm-4.76-4.894V4.039h.621a.45.45 0 0 0 .45-.45v-.855h1.251v1.305h1.309v1.215h-1.309v3.109c0 .293.105.664.648.664.365 0 .531-.035.736-.07v1.137s-.361.113-.857.113c-1.398 0-1.777-1.051-1.777-1.788V5.254h-1.071zM36.528 4.039h-1.394l2.191 6.106h1.125l1.234-3.918 1.238 3.918h1.129l2.188-6.106h-1.383l-1.359 3.93-1.256-3.93h-1.124l-1.242 3.957-1.348-3.957zM26.212 7.141c-.02 1.566 1.187 3.129 3.223 3.129 1.566 0 2.383-.918 2.734-1.719L31.172 8c-.315.399-.801 1.094-1.738 1.094-1.145 0-1.825-.781-1.891-1.52h4.625c.074-.284.148-.995-.03-1.559-.336-1.064-1.221-2.102-2.839-2.102s-3.088 1.152-3.088 3.227zm1.363-.75h3.348c-.055-.43-.566-1.301-1.623-1.301a1.79 1.79 0 0 0-1.725 1.301zm-8.758.75c.038 1.758 1.277 3.133 3.145 3.133 1.074 0 1.723-.477 1.961-.672v.547h1.242V1.703h-1.258v2.888c-.414-.36-1.062-.68-1.93-.68-1.91 0-3.198 1.473-3.16 3.23zm1.309-.08c0 1.119.723 1.978 1.836 1.978a1.88 1.88 0 0 0 1.94-1.904c0-1.371-1.011-1.99-1.972-1.99s-1.805.798-1.805 1.916zm76.683-.028C96.771 5.275 95.532 3.9 93.664 3.9c-1.074 0-1.723.477-1.961.672v-.547h-1.242v8.22h1.258V9.583c.414.36 1.063.68 1.93.68 1.91 0 3.198-1.473 3.16-3.23zm-1.309.08c0-1.119-.723-1.978-1.836-1.978a1.88 1.88 0 0 0-1.94 1.904c0 1.371 1.011 1.99 1.972 1.99S95.5 8.231 95.5 7.113zM106.441 10.173V4.036h1.254v.382c.361-.346 1-.485 1.47-.485 1.452 0 2.477 1.082 2.457 2.448v3.792h-1.27V6.492c0-.408-.214-1.339-1.315-1.339-.969 0-1.342.756-1.342 1.339v3.681h-1.254zm-30.383-.021V1.824h1.084l4.215 5.777V1.824h1.32v8.328h-1.094l-4.207-5.796v5.796h-1.319zM5.24 10.149H4V2.377h1.014l2.664 3.597 2.654-3.592h1.03v7.766h-1.256V4.762L7.678 8.068 5.24 4.742v5.407z" transform="translate(703, 893)" fill="#80808088" stroke="none"></path></svg>